#!OML:ASF F:\VICON\USERDATA\INSTALL\rory3\rory3.ASF
:FULLY-SPECIFIED
:DEGREES
740
root -1.57067 26.8771 -4.77596 183.894 14.1575 181.335
lowerback 11.9561 1.78365 -1.27777
upperback 3.19775 2.4751 -0.883711
thorax -3.36166 1.35931 -0.568975
lowerneck -4.32345 1.81255 -6.07421
upperneck 16.9811 3.17811 4.56228
head 5.65915 1.80541 2.66779
rclavicle -7.55382e-015 0
rhumerus -16.173 16.1388 -88.922
rradius 48.3049
rwrist 6.9894
rhand -27.3028 2.71382
rfingers 7.12502
rthumb -0.712588 -27.2647
lclavicle -7.55382e-015 0
lhumerus -18.4821 7.84005 74.3949
lradius 27.2579
lwrist -2.50725
lhand -28.9774 20.3017
lfingers 7.12502
lthumb -2.32988 50.2687
rfemur -6.57305 13.8791 22.7916
rtibia 33.1945
rfoot 4.06464 -3.19871
rtoes -16.1095
lfemur -47.1787 16.0931 -28.9607
ltibia 75.1796
lfoot -35.4931 6.12519
ltoes 11.2355
741
root -1.57806 26.9198 -4.81534 183.96 14.1305 181.346
lowerback 11.9088 1.80407 -1.49375
upperback 3.15911 2.47277 -0.888731
thorax -3.38439 1.35772 -0.451772
lowerneck -4.33829 1.82591 -6.08024
upperneck 17.0403 3.20051 4.582
head 5.67849 1.81913 2.67807
rclavicle -2.00773e-014 1.19271e-015
rhumerus -16.3526 16.3424 -89.0532
rradius 48.5138
rwrist 6.60523
rhand -27.2369 2.84954
rfingers 7.12502
rthumb -0.648893 -27.1292
lclavicle -2.00773e-014 1.19271e-015
lhumerus -18.4948 8.11767 74.3503
lradius 27.0922
lwrist -2.7613
lhand -28.8902 20.0861
lfingers 7.12502
lthumb -2.24569 50.054
rfemur -6.73849 14.0332 22.6773
rtibia 33.0757
rfoot 5.18901 -3.21156
rtoes -16.1002
lfemur -46.7466 16.1004 -28.8147
ltibia 74.6939
lfoot -35.6433 4.47862
ltoes 14.9521
742
root -1.58494 26.9623 -4.84959 183.973 14.0491 181.204
lowerback 11.9258 1.80201 -1.85656
upperback 3.13434 2.42418 -0.950722
thorax -3.43048 1.33606 -0.306866
lowerneck -4.34915 1.83327 -6.04735
upperneck 17.0474 3.2144 4.54272
head 5.68322 1.82521 2.66135
rclavicle -1.48095e-014 -1.15295e-014
rhumerus -16.4522 16.5435 -89.2381
rradius 48.6542
rwrist 6.2246
rhand -27.5297 2.99458
rfingers 7.12502
rthumb -0.931644 -26.9831
lclavicle -1.48095e-014 -1.15295e-014
lhumerus -18.4082 8.50961 74.25
lradius 26.7963
lwrist -3.0329
lhand -29.0936 19.3684
lfingers 7.12502
lthumb -2.44208 49.3342
rfemur -6.90387 14.1545 22.4216
rtibia 32.9733
rfoot 6.25445 -3.98852
rtoes -13.6124
lfemur -46.3097 16.0693 -28.8701
ltibia 74.1076
lfoot -35.5884 3.32495
ltoes 17.3026
743
root -1.59396 27.0096 -4.88582 183.983 13.8516 181.154
lowerback 11.9839 1.76733 -2.03866
upperback 3.11356 2.35389 -1.00016
thorax -3.48785 1.30318 -0.248474
lowerneck -4.44507 1.80498 -6.04588
upperneck 17.1177 3.18798 4.50687
head 5.72415 1.81033 2.65185
rclavicle -3.27995e-015 6.75868e-015
rhumerus -16.5632 16.3587 -89.3663
rradius 48.9191
rwrist 6.67841
rhand -27.5101 2.73815
rfingers 7.12502
rthumb -0.912783 -27.2396
lclavicle -3.27995e-015 6.75868e-015
lhumerus -18.2616 8.72135 74.1924
lradius 26.5002
lwrist -3.19091
lhand -29.2316 19.0849
lfingers 7.12502
lthumb -2.5754 49.0491
rfemur -6.95945 14.1293 22.2736
rtibia 32.927
rfoot 7.2218 -4.6184
rtoes -11.3982
lfemur -46.0168 16.3299 -29.2526
ltibia 73.5811
lfoot -35.1164 5.9013
ltoes 10.1386
744
root -1.60295 27.0568 -4.92352 184.02 13.6866 181.349
lowerback 12.01 1.75005 -1.93826
upperback 3.11892 2.34378 -0.997829
thorax -3.49283 1.2981 -0.30173
lowerneck -4.45316 1.79988 -6.00946
upperneck 17.0868 3.17814 4.48851
head 5.71732 1.80584 2.63883
rclavicle 2.41523e-014 -1.94809e-014
rhumerus -16.6743 16.0918 -89.4423
rradius 49.1468
rwrist 7.14004
rhand -27.3878 2.74496
rfingers 7.12502
rthumb -0.794676 -27.2333
lclavicle 2.41523e-014 -1.94809e-014
lhumerus -18.1917 8.66448 74.2042
lradius 26.5068
lwrist -3.01346
lhand -29.1936 19.4086
lfingers 7.12502
lthumb -2.53868 49.3733
rfemur -7.00039 14.1606 22.3917
rtibia 32.9004
rfoot 8.39733 -5.01617
rtoes -9.80885
lfemur -45.4828 16.0599 -28.7457
ltibia 73.027
lfoot -35.2828 3.41964
ltoes 16.4111
745
root -1.6108 27.0996 -4.96217 184.058 13.5243 181.55
lowerback 11.9404 1.74307 -1.79746
upperback 3.1524 2.3558 -1.02288
thorax -3.4136 1.30408 -0.405118
lowerneck -4.41124 1.77836 -5.92873
upperneck 16.9973 3.13095 4.50111
head 5.68532 1.78732 2.62384
rclavicle -1.61016e-014 -9.54166e-015
rhumerus -16.7134 16.0633 -89.552
rradius 49.1954
rwrist 7.04557
rhand -27.4876 2.8803
rfingers 7.12502
rthumb -0.89105 -27.0976
lclavicle -1.61016e-014 -9.54166e-015
lhumerus -18.0857 8.60357 74.2157
lradius 26.4818
lwrist -2.80179
lhand -29.1466 19.6064
lfingers 7.12502
lthumb -2.49328 49.5716
rfemur -7.08075 14.2155 22.5246
rtibia 32.9043
rfoot 9.51158 -5.33645
rtoes -8.89783
lfemur -45.1596 16.3414 -28.8189
ltibia 72.5536
lfoot -34.842 5.68637
ltoes 10.227
746
root -1.61875 27.1452 -5.0021 184.088 13.3339 181.72
lowerback 11.8793 1.71353 -1.72413
upperback 3.16683 2.32792 -1.0182
thorax -3.36239 1.28992 -0.43462
lowerneck -4.41994 1.78923 -5.98035
upperneck 16.9897 3.13708 4.59398
head 5.68117 1.79396 2.66202
rclavicle -1.98785e-016 1.55052e-014
rhumerus -16.8197 16.1199 -89.6568
rradius 49.2706
rwrist 6.87832
rhand -27.5075 2.56696
rfingers 7.12502
rthumb -0.910233 -27.4108
lclavicle -1.98785e-016 1.55052e-014
lhumerus -18.0107 8.71656 74.2446
lradius 26.3582
lwrist -2.67319
lhand -29.1 19.4573
lfingers 7.12502
lthumb -2.44829 49.423
rfemur -7.1459 14.1643 22.6149
rtibia 32.9425
rfoot 10.4151 -5.46733
rtoes -8.38484
lfemur -44.6401 16.1123 -28.4335
ltibia 71.9996
lfoot -34.8609 3.96095
ltoes 14.977
747
root -1.62544 27.1849 -5.03758 184.133 13.0953 181.927
lowerback 11.8766 1.66134 -1.67969
upperback 3.16477 2.26512 -0.954713
thorax -3.36365 1.25802 -0.384293
lowerneck -4.52747 1.82685 -6.13959
upperneck 17.0142 3.19834 4.65526
head 5.70037 1.81767 2.71358
rclavicle 2.8625e-014 -1.90833e-014
rhumerus -16.9818 16.1888 -89.7179
rradius 49.3753
rwrist 6.41242
rhand -27.2344 2.9352
rfingers 7.12502
rthumb -0.646502 -27.0436
lclavicle 2.8625e-014 -1.90833e-014
lhumerus -17.9288 8.90272 74.3094
lradius 26.2209
lwrist -2.63013
lhand -29.0696 19.5393
lfingers 7.12502
lthumb -2.41897 49.5053
rfemur -7.25496 14.1069 22.7557
rtibia 33.0489
rfoot 11.4032 -5.9719
rtoes -6.31165
lfemur -44.3322 16.1838 -28.3766
ltibia 71.5287
lfoot -34.4317 5.43301
ltoes 11.0725
748
root -1.63219 27.2243 -5.07116 184.176 12.8665 182.045
lowerback 11.801 1.64595 -1.71569
upperback 3.18478 2.24481 -0.901761
thorax -3.30466 1.24793 -0.30287
lowerneck -4.53226 1.82178 -6.23121
upperneck 16.9599 3.20935 4.57442
head 5.68434 1.81034 2.70252
rclavicle -9.54166e-015 4.77083e-015
rhumerus -17.0746 16.2017 -89.7085
rradius 49.3807
rwrist 5.93024
rhand -27.4675 3.57441
rfingers 7.12502
rthumb -0.871621 -26.4036
lclavicle -9.54166e-015 4.77083e-015
lhumerus -17.7035 8.98549 74.4435
lradius 25.9598
lwrist -2.53205
lhand -28.9428 20.0596
lfingers 7.12502
lthumb -2.29644 50.027
rfemur -7.42809 13.993 22.8042
rtibia 33.2121
rfoot 12.3543 -6.40505
rtoes -4.48858
lfemur -43.8201 15.7961 -27.9686
ltibia 70.9826
lfoot -34.6338 2.8538
ltoes 17.6082
